<svg version="1.1" xmlns="http://www.w3.org/2000/svg" xmlns:xlink="http://www.w3.org/1999/xlink" x="0" y="0" width="193" height="37.4" viewBox="0 0 193 37.4" xml:space="preserve">
	<style type="text/css">
		.st0{fill:#F68D11;}
		.st1{fill:#444444;}
		.st2{fill:#F69010;}
		.st3{fill:#9B9B9B;}
	</style>
	<path class="st0" d="M6.3,0L6.3,0C2.9,0,0,2.8,0,6.3v21c0,3.5,2.9,6.3,6.3,6.3h11.4c0,0,4.5,0,8.8,0c0.1,0,0.1,0,0.2,0l9.5,3.8 l-3.5-7.2H7.6c-2.7,0-4-1.5-4-3.9c0-1,0.4-1.9,1.1-2.6l0,0L21.1,9.2H9.6c-2.9,0-4-0.6-4-3.4V3.7h19.8c1.2,0,2.3,0.3,3.2,1.1 c0.9,0.8,1.2,1.8,1.2,2.8c0,0.8-0.2,1.7-0.8,2.3l0,0L12.3,24.8h20.5V6.3C32.8,2.8,30,0,26.5,0H6.3z"/>
	<path class="st1" d="M70.2,3.9L70.2,3.9c-3.1,0-3.9,0.8-3.9,3.8v22.7H72V3.9H70.2z M62.6,3.9L62.6,3.9c-3.1,0-3.9,0.8-3.9,3.8v22.7 h5.6V3.9H62.6z M42,10.4L42,10.4c-2.3,0-4,0.4-5,1.3c-1,0.9-1.5,2.3-1.5,4.3v8.6c0,1.1,0.1,1.9,0.2,2.5c0.3,1.2,0.9,2.1,1.9,2.5 c0.9,0.4,2.4,0.6,4.5,0.6h13.8v-1.6c0-2.7-0.6-3.2-4.4-3.2h-7.3c-2.1,0-3-0.3-3-2.8v-4.8c0-2.4,0.8-2.8,3.1-2.8h4.5 c1.5,0,2.5,0.3,2.5,1.4v1.7h-4.1c-2.8,0-3.6,0.9-3.6,2.8v1.6h13.2v-6.7c0-1-0.1-1.9-0.2-2.5c-0.3-1.3-0.9-2.1-1.8-2.5 c-0.9-0.4-2.5-0.6-4.6-0.6H42V10.4z M80.2,10.5L80.2,10.5c-4.5,0-6.6,0.9-6.6,5.6v8.6c0,4.4,2.1,5.7,6.5,5.7h8.8 c4.5,0,6.6-0.9,6.6-5.7v-8.6c0-4.5-2.1-5.6-6.6-5.6H80.2z M79.3,22.8L79.3,22.8V18c0-2.4,0.7-2.8,3-2.8h4.5c2.3,0,3.1,0.4,3.1,2.8 v4.8c0,2.4-0.8,2.8-3.1,2.8h-4.5C80.1,25.6,79.3,25.2,79.3,22.8"/>
	<path class="st2" d="M89.3,5.9L89.3,5.9v3c6.5,0,8.2,1.8,7.9,8h3.2c0.3-8.4-2.3-11-10.9-11C89.5,5.9,89.3,5.9,89.3,5.9z"/>
	<path class="st2" d="M92.1,1.7L92.1,1.7v3.1c6.5,0.1,9.7,2.5,9.6,9.4h3.3c0.1-9.3-3.7-12.5-12.7-12.5C92.3,1.7,92.1,1.7,92.1,1.7z"/>
	<path class="st3" d="M118.9,22.5l0.5,3.5l0.8-3.2l5.3-18.7h3l5.2,18.7l0.7,3.2l0.6-3.6l4.2-18.4h3.6L136.1,31h-3.2l-5.5-19.6 l-0.4-2l-0.4,2L120.8,31h-3.2l-6.5-26.8h3.5L118.9,22.5z"/>
	<path class="st3" d="M141.9,20.8c0-2,0.4-3.7,1.2-5.3c0.8-1.6,1.8-2.8,3.2-3.6c1.4-0.8,2.9-1.3,4.7-1.3c2.7,0,4.9,0.9,6.6,2.8 c1.7,1.9,2.5,4.4,2.5,7.5v0.2c0,1.9-0.4,3.7-1.1,5.2c-0.7,1.5-1.8,2.7-3.2,3.6c-1.4,0.9-3,1.3-4.8,1.3c-2.7,0-4.9-0.9-6.6-2.8 c-1.7-1.9-2.5-4.4-2.5-7.5V20.8z M145.3,21.2c0,2.2,0.5,4,1.5,5.3c1,1.3,2.4,2,4.1,2c1.7,0,3.1-0.7,4.1-2c1-1.4,1.5-3.3,1.5-5.7 c0-2.2-0.5-4-1.6-5.3c-1-1.4-2.4-2-4.1-2c-1.7,0-3,0.7-4.1,2C145.8,16.8,145.3,18.7,145.3,21.2z"/>
	<path class="st3" d="M173.3,14.1c-0.5-0.1-1.1-0.1-1.7-0.1c-2.2,0-3.8,1-4.6,2.9V31h-3.4V11h3.3l0.1,2.3c1.1-1.8,2.7-2.7,4.8-2.7 c0.7,0,1.2,0.1,1.5,0.3V14.1z"/>
	<path class="st3" d="M182,21.7l-2.1,2.2v7h-3.4V2.7h3.4v17.1l1.8-2.2l6.2-6.6h4.1l-7.8,8.3L193,31h-4L182,21.7z"/>
</svg>
